<?xml version="1.0" encoding="UTF-8"?>
<svg width="26px" height="26px" viewBox="0 0 26 26" version="1.1" xmlns="http://www.w3.org/2000/svg" xmlns:xlink="http://www.w3.org/1999/xlink">
    <!-- Generator: sketchtool 56.3 (101010) - https://sketch.com -->
    <title>F581B409-6084-462B-A5F0-18E3574D4B0F</title>
    <desc>Created with sketchtool.</desc>
    <g id="V4" stroke="none" stroke-width="1" fill="none" fill-rule="evenodd" opacity="0.5">
        <g id="V5-TCO-(S4)-" transform="translate(-781.000000, -1862.000000)">
            <g id="compare-table" transform="translate(100.000000, 729.000000)">
                <g id="section3" transform="translate(0.000000, 534.000000)">
                    <g id="tag-copy-2" transform="translate(271.000000, 577.000000)">
                        <g id="icon-/-Plus" transform="translate(408.000000, 20.000000)">
                            <rect id="Rectangle" x="0" y="0" width="30" height="30"></rect>
                            <path d="M15,2.30769231 C22.009768,2.30769231 27.6923077,7.99023202 27.6923077,15 C27.6923077,22.009768 22.009768,27.6923077 15,27.6923077 C7.99023202,27.6923077 2.30769231,22.009768 2.30769231,15 C2.30769231,7.99023202 7.99023202,2.30769231 15,2.30769231 Z M15,4.03846154 C8.94610947,4.03846154 4.03846154,8.94610947 4.03846154,15 C4.03846154,21.0538905 8.94610947,25.9615385 15,25.9615385 C21.0538905,25.9615385 25.9615385,21.0538905 25.9615385,15 C25.9615385,8.94610947 21.0538905,4.03846154 15,4.03846154 Z M15.8653846,15.8653846 L15.8653846,21.0576923 C15.8653846,21.535631 15.4779387,21.9230769 15,21.9230769 C14.5220613,21.9230769 14.1346154,21.535631 14.1346154,21.0576923 L14.1346154,15.8653846 L8.94230769,15.8653846 C8.46436897,15.8653846 8.07692308,15.4779387 8.07692308,15 C8.07692308,14.5220613 8.46436897,14.1346154 8.94230769,14.1346154 L14.1346154,14.1346154 L14.1346154,8.94230769 C14.1346154,8.46436897 14.5220613,8.07692308 15,8.07692308 C15.4779387,8.07692308 15.8653846,8.46436897 15.8653846,8.94230769 L15.8653846,14.1346154 L21.0576923,14.1346154 C21.535631,14.1346154 21.9230769,14.5220613 21.9230769,15 C21.9230769,15.4779387 21.535631,15.8653846 21.0576923,15.8653846 L15.8653846,15.8653846 Z" id="Combined-Shape" fill="#454545" fill-rule="nonzero"></path>
                        </g>
                    </g>
                </g>
            </g>
        </g>
    </g>
</svg>