<?xml version="1.0" encoding="UTF-8"?>
<svg width="30px" height="38px" viewBox="0 0 30 38" version="1.1" xmlns="http://www.w3.org/2000/svg" xmlns:xlink="http://www.w3.org/1999/xlink">
    <!-- Generator: sketchtool 56.3 (101010) - https://sketch.com -->
    <title>848EC4E0-2E71-4DF0-B278-825543C2DB28</title>
    <desc>Created with sketchtool.</desc>
    <g id="V4" stroke="none" stroke-width="1" fill="none" fill-rule="evenodd">
        <g id="V5-TCO-(S4)-" transform="translate(-392.000000, -1856.000000)" fill="#454545" fill-rule="nonzero">
            <g id="compare-table" transform="translate(100.000000, 729.000000)">
                <g id="section3" transform="translate(0.000000, 534.000000)">
                    <g id="tag-copy-2" transform="translate(271.000000, 577.000000)">
                        <path d="M50.1914522,50.184691 L50.1914522,23.170262 L50.1914522,21.7370782 L50.1914522,18.1508615 C50.1914522,16.9663133 49.2201156,16 48.0269776,16 L27.1022667,16 L27.1022667,21.7359925 L27.1022667,23.1691763 L27.1022667,27.2570073 L21.7517206,24.0149719 L21,25.2375211 L27.1022667,28.9355696 L27.1022667,48.2640075 C27.1022667,48.8861396 27.3732358,49.4442127 27.8004491,49.8372525 C26.9755232,50.1390897 26.3800468,50.9240835 26.3800468,51.8491385 C26.3800468,53.0369439 27.3524761,54 28.5445214,54 C29.7365667,54 30.7079033,53.0347724 30.7079033,51.8491385 C30.7079033,51.2954084 30.4926577,50.7970513 30.1452055,50.4170405 L47.2359228,50.4170405 C46.8906558,50.7992228 46.6721324,51.2975799 46.6721324,51.8491385 C46.6721324,53.0369439 47.643469,54 48.8366069,54 C50.0297449,54 51,53.0347724 51,51.8491385 C51.0021741,51.173805 50.6820373,50.5788165 50.1914522,50.184691 Z M28.545614,48.2640075 L28.545614,41.8125089 L48.7491976,41.8125089 L48.7491976,48.9827709 L29.2667413,48.9827709 C28.8690287,48.9805994 28.545614,48.6592188 28.545614,48.2640075 Z M48.7491976,40.3782394 L28.545614,40.3782394 L28.545614,34.6422469 L48.7491976,34.6422469 L48.7491976,40.3782394 Z M28.545614,17.4331838 L48.0269776,17.4331838 C48.422505,17.4331838 48.7491976,17.7556502 48.7491976,18.1497757 L48.7491976,21.7349067 L47.3058503,21.7349067 L47.3058503,18.8674534 L37.2046048,18.8674534 L37.2046048,21.7359925 L28.5467066,21.7359925 L28.545614,17.4331838 L28.545614,17.4331838 Z M38.6468595,23.170262 L38.6468595,21.7370782 L38.6468595,20.3017229 L45.8625031,20.3017229 L45.8625031,24.6034458 L38.6468595,24.6034458 L38.6468595,23.170262 Z M37.2035122,23.170262 L37.2035122,26.0388011 L47.3047577,26.0388011 L47.3047577,23.170262 L48.748105,23.170262 L48.748105,33.2068916 L28.5445214,33.2068916 L28.5445214,23.170262 L37.2035122,23.170262 Z" id="icon/printer"></path>
                    </g>
                </g>
            </g>
        </g>
    </g>
</svg>