<?xml version="1.0" encoding="UTF-8"?>
<svg width="36px" height="34px" viewBox="0 0 36 34" version="1.1" xmlns="http://www.w3.org/2000/svg" xmlns:xlink="http://www.w3.org/1999/xlink">
    <!-- Generator: sketchtool 56.3 (101010) - https://sketch.com -->
    <title>DC5FE26C-DA14-4686-86DF-5B0EC9DC2418</title>
    <desc>Created with sketchtool.</desc>
    <g id="V4" stroke="none" stroke-width="1" fill="none" fill-rule="evenodd">
        <g id="V5-TCO-(S4)-" transform="translate(-392.000000, -1341.000000)" fill="#454545" fill-rule="nonzero">
            <g id="compare-table" transform="translate(100.000000, 729.000000)">
                <g id="section3" transform="translate(0.000000, 534.000000)">
                    <g id="tag-copy" transform="translate(271.000000, 61.000000)">
                        <path d="M49.6989973,51 C49.5883106,51 49.4756473,50.9737714 49.3748433,50.9193714 L39.0019152,45.5094857 L28.6270104,50.9193714 C28.3957542,51.0417714 28.1101429,51.0204 27.8986522,50.8708 C27.6851849,50.7192571 27.577463,50.4608571 27.6219354,50.2044 L29.6044138,38.7347429 L21.2070462,30.6126286 C21.0212506,30.43 20.9520714,30.1609143 21.0340982,29.9151429 C21.116125,29.6693714 21.3315688,29.4896571 21.5904967,29.4527429 L33.1888851,27.7818857 L38.3773257,17.3497143 C38.6095702,16.8834286 39.3883305,16.8834286 39.6215632,17.3497143 L44.8100039,27.7818857 L56.4083923,29.4546857 C56.6692967,29.4916 56.8847406,29.6722857 56.9647908,29.9170857 C57.0478058,30.1618857 56.9815915,30.4309714 56.7918428,30.6145714 L48.3944751,38.7366857 L50.3789301,50.2063429 C50.4234025,50.4628 50.3156806,50.7202286 50.1022133,50.8727429 C49.9846087,50.9562857 49.8422971,51 49.6989973,51 Z M39.0009269,44.0581714 C39.1126019,44.0581714 39.2252652,44.0853714 39.3250809,44.1388 L48.7799021,49.0707429 L46.9723483,38.6142857 C46.9357821,38.3937714 47.0089144,38.1703429 47.1700031,38.0149143 L54.8330829,30.6048571 L44.248664,29.0787429 C44.0223492,29.0457143 43.8286474,28.9068 43.7298199,28.7057143 L39.0019152,19.2012571 L34.2749987,28.7057143 C34.1741947,28.9068 33.9795046,29.0476571 33.7541781,29.0797143 L23.1697592,30.6058286 L30.8318506,38.0158857 C30.9939276,38.1713143 31.06706,38.3957143 31.0295055,38.6152571 L29.2209634,49.0717143 L38.6757846,44.1397714 C38.7795534,44.0853714 38.8902402,44.0581714 39.0009269,44.0581714 Z" id="icon-/-star"></path>
                    </g>
                </g>
            </g>
        </g>
    </g>
</svg>